<svg id="visual" viewBox="0 0 900 600" width="900" height="600" xmlns="http://www.w3.org/2000/svg" xmlns:xlink="http://www.w3.org/1999/xlink" version="1.1"><path d="M0 151L13.7 165C27.3 179 54.7 207 82 201C109.3 195 136.7 155 163.8 154C191 153 218 191 245.2 209C272.3 227 299.7 225 327 210C354.3 195 381.7 167 409 146C436.3 125 463.7 111 491 111C518.3 111 545.7 125 573 128C600.3 131 627.7 123 654.8 145C682 167 709 219 736.2 231C763.3 243 790.7 215 818 195C845.3 175 872.7 163 886.3 157L900 151L900 0L886.3 0C872.7 0 845.3 0 818 0C790.7 0 763.3 0 736.2 0C709 0 682 0 654.8 0C627.7 0 600.3 0 573 0C545.7 0 518.3 0 491 0C463.7 0 436.3 0 409 0C381.7 0 354.3 0 327 0C299.7 0 272.3 0 245.2 0C218 0 191 0 163.8 0C136.7 0 109.3 0 82 0C54.7 0 27.3 0 13.7 0L0 0Z" fill="#6198ff"></path><path d="M0 223L13.7 236C27.3 249 54.7 275 82 282C109.3 289 136.7 277 163.8 283C191 289 218 313 245.2 318C272.3 323 299.7 309 327 294C354.3 279 381.7 263 409 251C436.3 239 463.7 231 491 234C518.3 237 545.7 251 573 261C600.3 271 627.7 277 654.8 298C682 319 709 355 736.2 365C763.3 375 790.7 359 818 343C845.3 327 872.7 311 886.3 303L900 295L900 149L886.3 155C872.7 161 845.3 173 818 193C790.7 213 763.3 241 736.2 229C709 217 682 165 654.8 143C627.7 121 600.3 129 573 126C545.7 123 518.3 109 491 109C463.7 109 436.3 123 409 144C381.7 165 354.3 193 327 208C299.7 223 272.3 225 245.2 207C218 189 191 151 163.8 152C136.7 153 109.3 193 82 199C54.7 205 27.3 177 13.7 163L0 149Z" fill="#3c80ff"></path><path d="M0 283L13.7 294C27.3 305 54.7 327 82 338C109.3 349 136.7 349 163.8 353C191 357 218 365 245.2 372C272.3 379 299.7 385 327 370C354.3 355 381.7 319 409 304C436.3 289 463.7 295 491 299C518.3 303 545.7 305 573 309C600.3 313 627.7 319 654.8 339C682 359 709 393 736.2 409C763.3 425 790.7 423 818 411C845.3 399 872.7 377 886.3 366L900 355L900 293L886.3 301C872.7 309 845.3 325 818 341C790.7 357 763.3 373 736.2 363C709 353 682 317 654.8 296C627.7 275 600.3 269 573 259C545.7 249 518.3 235 491 232C463.7 229 436.3 237 409 249C381.7 261 354.3 277 327 292C299.7 307 272.3 321 245.2 316C218 311 191 287 163.8 281C136.7 275 109.3 287 82 280C54.7 273 27.3 247 13.7 234L0 221Z" fill="#0066ff"></path><path d="M0 331L13.7 350C27.3 369 54.7 407 82 422C109.3 437 136.7 429 163.8 426C191 423 218 425 245.2 427C272.3 429 299.7 431 327 428C354.3 425 381.7 417 409 402C436.3 387 463.7 365 491 365C518.3 365 545.7 387 573 395C600.3 403 627.7 397 654.8 414C682 431 709 471 736.2 483C763.3 495 790.7 479 818 473C845.3 467 872.7 471 886.3 473L900 475L900 353L886.3 364C872.7 375 845.3 397 818 409C790.7 421 763.3 423 736.2 407C709 391 682 357 654.8 337C627.7 317 600.3 311 573 307C545.7 303 518.3 301 491 297C463.7 293 436.3 287 409 302C381.7 317 354.3 353 327 368C299.7 383 272.3 377 245.2 370C218 363 191 355 163.8 351C136.7 347 109.3 347 82 336C54.7 325 27.3 303 13.7 292L0 281Z" fill="#0059dd"></path><path d="M0 601L13.7 601C27.3 601 54.7 601 82 601C109.3 601 136.7 601 163.8 601C191 601 218 601 245.2 601C272.3 601 299.7 601 327 601C354.3 601 381.7 601 409 601C436.3 601 463.7 601 491 601C518.3 601 545.7 601 573 601C600.3 601 627.7 601 654.8 601C682 601 709 601 736.2 601C763.3 601 790.7 601 818 601C845.3 601 872.7 601 886.3 601L900 601L900 473L886.3 471C872.7 469 845.3 465 818 471C790.7 477 763.3 493 736.2 481C709 469 682 429 654.8 412C627.7 395 600.3 401 573 393C545.7 385 518.3 363 491 363C463.7 363 436.3 385 409 400C381.7 415 354.3 423 327 426C299.7 429 272.3 427 245.2 425C218 423 191 421 163.8 424C136.7 427 109.3 435 82 420C54.7 405 27.3 367 13.7 348L0 329Z" fill="#004cbb"></path></svg>